<svg width="24px" height="24px" viewBox="0 0 24 24" version="1.1" xmlns="http://www.w3.org/2000/svg"
    xmlns:xlink="http://www.w3.org/1999/xlink">
    <g id="Icon/Content/Categories/Cars" stroke="none" stroke-width="1" fill="none"
        fill-rule="evenodd">
        <rect id="Path" fill-rule="nonzero" x="0" y="0" width="24" height="24" />
        <rect id="Path" fill-rule="nonzero" x="0" y="0" width="24" height="24" />
        <g id="Rectangle" transform="translate(2.000000, 5.086097)" fill="#006FB9"
            fill-rule="nonzero">
            <g id="Mask">
                <path class="stylesvg"
                    d="M16.9431394,10.9465323 L16.9175525,11.0530534 C16.6351354,12.1241332 15.659798,12.9139029 14.5,12.9139029 C13.340202,12.9139029 12.3648646,12.1241332 12.0824475,11.0530534 L12.0568606,10.9465323 L12.0568606,10.9465323 L7.959,10.946 L7.95312914,10.9842804 C7.73785738,12.0809986 6.80545302,12.9206191 5.66437569,12.9946823 L5.5,13 C4.28497355,13 3.27239365,12.1332233 3.04687086,10.9842804 L3.04,10.946 L0.497464702,10.9460146 C0.25439596,10.9460146 0.0503908959,10.7866434 0.00805728601,10.5561848 L0,10.4666031 L0,6.1020269 C0,5.37028601 0.597055368,4.91390287 1.29356814,4.91390287 L1.29356814,4.91390287 L2.53452863,4.91390287 C4.56407756,3.18319731 5.90208065,2.13638285 6.54853791,1.77345949 C7.51822379,1.22907444 9.95085749,0.000175974627 10.9204141,0.000175974627 L10.9204141,0.000175974627 L17,0 C19.0750513,0 20,4.51988987 20,6.00101043 L20,6.00101043 L20,9.63404399 C20,10.3657849 19.4029446,10.9460146 18.7064319,10.9460146 L18.7064319,10.9460146 L16.9431394,10.9465323 L16.9431394,10.9465323 Z M5.5,9.91390287 C5.22385763,9.91390287 5,10.1377605 5,10.4139029 C5,10.6900452 5.22385763,10.9139029 5.5,10.9139029 C5.77614237,10.9139029 6,10.6900452 6,10.4139029 C6,10.1377605 5.77614237,9.91390287 5.5,9.91390287 Z M14.5,9.91390287 C14.2238576,9.91390287 14,10.1377605 14,10.4139029 C14,10.6900452 14.2238576,10.9139029 14.5,10.9139029 C14.7761424,10.9139029 15,10.6900452 15,10.4139029 C15,10.1377605 14.7761424,9.91390287 14.5,9.91390287 Z M16.4878069,1.92304031 L15.0561148,1.92304031 L15.5877132,4.92304031 L18.0561148,4.92304031 C17.6042633,3.26893998 16.9129812,1.92323587 16.4878069,1.92304031 L16.4878069,1.92304031 Z M13.4141414,1.92324009 L11.0882385,1.9230445 L10.7511899,4.92284891 L13.7511899,4.9230445 L13.4141414,1.92324009 Z M9.77612489,1.91390287 C8.42739779,2.24064132 7.04583507,2.98322871 5.86163846,4.05255454 C5.86163846,4.05255454 5.82882693,4.08218325 5.82882693,4.08218325 L5.82882693,4.08218325 L4.77612489,4.91390287 L9.1510735,4.91390287 Z M14.5,7.91390287 C15.3836556,7.91390287 16.160232,8.37236329 16.6048453,9.06440012 L16.5354098,8.96198 L16.5354098,8.96198 L17.7397392,8.96211548 C17.8943557,8.96211548 18.004884,8.87121992 18.004884,8.78032435 L18.004884,8.78032435 L18.004884,6.96211548 L2.27014726,6.96211548 C2.11553074,6.96211548 2.00488403,7.05301104 2.00488403,7.1439066 L2.00488403,7.1439066 L2.00488403,8.96211548 L2.00488403,8.96211548 L3.46459018,8.96198 C3.91800116,8.32749194 4.66070113,7.91390287 5.5,7.91390287 C6.33929887,7.91390287 7.08199884,8.32749194 7.53540982,8.96198 L12.4645902,8.96198 C12.4406275,8.99551253 12.4174729,9.02966205 12.3951547,9.06440012 L12.482355,8.93743534 C12.9372583,8.31684659 13.6715729,7.91390287 14.5,7.91390287 Z"
                    id="Combined-Shape" />
            </g>
        </g>
    </g>
</svg>