<svg width="24px" height="24px" viewBox="0 0 24 24" version="1.1" xmlns="http://www.w3.org/2000/svg"
    xmlns:xlink="http://www.w3.org/1999/xlink">
    <g id="Icon/Content/Categories/Baby" stroke="none" stroke-width="1" fill="none"
        fill-rule="evenodd">
        <rect id="Path" fill-rule="nonzero" x="0" y="0" width="24" height="24" />
        <path class="stylesvg"
            d="M16.7817588,16 C18.438613,16 19.7817588,17.3431458 19.7817588,19 C19.7817588,20.6568542 18.438613,22 16.7817588,22 C15.1249046,22 13.7817588,20.6568542 13.7817588,19 C13.7817588,17.3431458 15.1249046,16 16.7817588,16 Z M6.78175876,16 C8.43861301,16 9.78175876,17.3431458 9.78175876,19 C9.78175876,20.6568542 8.43861301,22 6.78175876,22 C5.12490451,22 3.78175876,20.6568542 3.78175876,19 C3.78175876,17.3431458 5.12490451,16 6.78175876,16 Z M16.7817588,18 C16.2294741,18 15.7817588,18.4477153 15.7817588,19 C15.7817588,19.5522847 16.2294741,20 16.7817588,20 C17.3340435,20 17.7817588,19.5522847 17.7817588,19 C17.7817588,18.4477153 17.3340435,18 16.7817588,18 Z M6.78175876,18 C6.22947401,18 5.78175876,18.4477153 5.78175876,19 C5.78175876,19.5522847 6.22947401,20 6.78175876,20 C7.33404351,20 7.78175876,19.5522847 7.78175876,19 C7.78175876,18.4477153 7.33404351,18 6.78175876,18 Z M16.463577,2 C18.8397947,2 20.8571705,3.74124854 21.2044339,6.09195455 L21.7817588,10 L19.6804043,15.6736572 C19.6077579,15.8698026 19.4206961,16 19.2115299,16 L4.35198765,16 C4.14282141,16 3.95575971,15.8698026 3.88311327,15.6736572 L2.03126142,10.6736572 C1.93535321,10.414705 2.06752645,10.1270338 2.32647862,10.0311256 C2.38206185,10.0105392 2.44086274,10 2.5001358,10 L9.49,10 L12.2091788,2.33291783 C12.2799314,2.13335941 12.4687065,2 12.6804363,2 L16.463577,2 Z M18.9077588,12 L4.65475876,12 L5.2739554,13.6735044 C5.34655864,13.8697294 5.53366045,14 5.74288632,14 L17.8196312,14 C18.0288571,14 18.2159589,13.8697294 18.2885622,13.6735044 L18.9077588,12 Z M16.463577,4 L14.0929968,4 C13.8812597,4 13.6924796,4.1333686 13.6217327,4.33293686 L11.6127588,10 L19.7817588,10 L19.2259064,6.38423701 C19.0319991,5.07163358 17.9443799,4.0851635 16.6355,4.00523648 L16.463577,4 Z"
            id="Kids" fill="#006FB9" fill-rule="nonzero" />
    </g>
</svg>