<svg width="24px" height="24px" viewBox="0 0 24 24" version="1.1" xmlns="http://www.w3.org/2000/svg"
    xmlns:xlink="http://www.w3.org/1999/xlink">
    <g id="Icon/Content/Categories/Bags" stroke="none" stroke-width="1" fill="none"
        fill-rule="evenodd">
        <rect id="Path" fill-rule="nonzero" x="0" y="0" width="24" height="24" />
        <g id="Icono-Maleta-y-mochila" transform="translate(3.000000, 1.000000)" fill="#006FB9"
            fill-rule="nonzero">
            <path class="stylesvg"
                d="M7,0 C8.04541411,0 9.06247606,0.316001781 10.0350309,0.93191909 C10.2883472,1.09234387 10.454352,1.35648834 10.4918951,1.6495844 L10.5,1.77675156 L10.5,4 L11,4 C12.5004428,4 13.7436112,5.10152258 13.9649563,6.54001884 C14.418612,6.61715197 14.86085,6.80853903 15.287736,7.10892366 C15.3941989,7.1838378 15.4661701,7.2964493 15.4907001,7.42181163 L15.5,7.51783437 L15.5000987,8.37177836 C17.2710266,8.97953977 18.4419758,10.3249577 18.9217414,12.3527736 L18.9803923,12.6211367 L19,12.8181923 L19,19.4986338 C19,20.8248416 17.9679004,21.9099895 16.6630993,21.9946794 L16.4986338,22 L9.5013662,22 C8.29173635,22 7.28264916,21.1413752 7.05032988,20.0003507 L4,20 C4,20.5522847 3.55228475,21 3,21 C2.48716416,21 2.06449284,20.6139598 2.00672773,20.1166211 L2,20 L2.00008893,19.8293257 C0.887635552,19.4361695 0.0763155991,18.4054973 0.00509269341,17.1762728 L0,17 L0,7 C0,5.40231912 1.24891996,4.09633912 2.82372721,4.00509269 L3,4 L3.5,4 L3.5,1.77675156 C3.5,1.43407491 3.67546471,1.1152617 3.96496907,0.93191909 C4.93752394,0.316001781 5.95458589,0 7,0 Z M13.0539534,10 C10.8073258,10 9.54388144,10.8938971 9.02886856,12.8230367 L9,12.936 L9,19.4986338 C9,19.7139981 9.13579004,19.8976469 9.32642327,19.9686333 L9.41124498,19.9919223 L9.5013662,20 L10.0622453,20.0003881 C10.054014,19.9599967 10.0477295,19.9188972 10.0434941,19.877192 L10.037037,19.7493169 L10.037037,16.2506831 C10.037037,15.6031207 10.5291805,15.0705046 11.159845,15.0064571 L11.2877201,15 L14.897465,15 C15.5450274,15 16.0776435,15.4921435 16.141691,16.122808 L16.1481481,16.2506831 L16.1481481,19.7493169 C16.1481481,19.8353104 16.1394693,19.9192768 16.1229398,20.0003881 L16.4986338,20 C16.7447644,20 16.9494707,19.8226416 16.9919223,19.588755 L17,19.4986338 L17,12.928 L16.9737298,12.805478 C16.5513831,11.0245303 15.4689722,10.1343066 13.5273111,10.0141255 L13.2901746,10.0033922 L13.0539534,10 Z M14.897465,16 L11.2877201,16 C11.16905,16 11.069639,16.0824581 11.0436577,16.1932038 L11.037037,16.2506831 L11.037037,17 L15.1296296,17 L15.1296296,18 L11.037037,18 L11.037037,19.7493169 C11.037037,19.867987 11.1194951,19.967398 11.2302408,19.9933793 L11.2877201,20 L14.897465,20 C15.0161351,20 15.1155461,19.9175419 15.1415274,19.8067962 L15.1481481,19.7493169 L15.1481481,16.2506831 C15.1481481,16.1122346 15.0359135,16 14.897465,16 Z M11,6 L3,6 C2.48716416,6 2.06449284,6.38604019 2.00672773,6.88337887 L2,7 L2,17 C2,17.5128358 2.38604019,17.9355072 2.88337887,17.9932723 L3,18 L7,18 L7,12.8181923 C7,12.7429916 7.00848264,12.6680308 7.02528705,12.5947316 C7.39641742,10.9758983 8.17424663,9.76950687 9.31807082,9.00006553 L4.5,9 C4.22385763,9 4,8.77614237 4,8.5 C4,8.25454011 4.17687516,8.05039163 4.41012437,8.00805567 L4.5,8 L9.5,8 C9.77614237,8 10,8.22385763 10,8.5 C10,8.54295548 9.9945832,8.5846458 9.98439541,8.62442515 C10.4414702,8.40273881 10.9478307,8.24065865 11.498831,8.13702568 L11.5,7.51783437 C11.5,7.35511114 11.5791854,7.20256634 11.712264,7.10892366 C11.8062025,7.04282244 11.9008844,6.98199935 11.9962686,6.92650522 L12,7 C12,6.44771525 11.5522847,6 11,6 Z M13.5,7.5 C13.2131879,7.5 12.9266501,7.57062969 12.6370098,7.71605908 L12.5,7.791 L12.4997752,8.01605887 C12.680591,8.00536331 12.8653342,8 13.0539534,8 C13.565727,8 14.0481887,8.03957489 14.5002548,8.11806816 L14.5,7.792 L14.3629902,7.71605908 C14.131278,7.59971557 13.9015513,7.53124387 13.6720813,7.50850892 L13.5,7.5 Z M7,2 C6.56495852,2 6.13123149,2.08970337 5.69403226,2.27387642 L5.5,2.362 L5.5,4 L8.5,4 L8.5,2.362 L8.30596774,2.27387642 C7.94163505,2.12039888 7.5797136,2.03252528 7.21743336,2.00749735 L7,2 Z"
                id="Combined-Shape" />
        </g>
    </g>
</svg>