<svg width="24" height="24" viewBox="0 0 24 24" fill="none" xmlns="http://www.w3.org/2000/svg">
<path fill-rule="evenodd" clip-rule="evenodd" d="M20.9678 3.03168C21.2607 3.32457 21.2607 3.79945 20.9678 4.09234L4.09283 20.9673C3.79994 21.2602 3.32506 21.2602 3.03217 20.9673C2.73928 20.6744 2.73928 20.1996 3.03217 19.9067L19.9072 3.03168C20.2001 2.73879 20.6749 2.73879 20.9678 3.03168Z" fill="#1B1A16"/>
<path fill-rule="evenodd" clip-rule="evenodd" d="M3.03217 3.03168C3.32506 2.73879 3.79994 2.73879 4.09283 3.03168L20.9678 19.9067C21.2607 20.1996 21.2607 20.6744 20.9678 20.9673C20.6749 21.2602 20.2001 21.2602 19.9072 20.9673L3.03217 4.09234C2.73928 3.79945 2.73928 3.32457 3.03217 3.03168Z" fill="#1B1A16"/>
</svg>
