<svg width="12" height="12" viewBox="0 0 12 12" fill="none" xmlns="http://www.w3.org/2000/svg">
<path d="M1.75953 0.228769L1.8623 0.31952L6 4.45636L10.1377 0.31952C10.5637 -0.106507 11.2545 -0.106507 11.6805 0.31952C12.0737 0.712775 12.104 1.33157 11.7712 1.75953L11.6805 1.8623L7.54364 6L11.6805 10.1377C12.1065 10.5637 12.1065 11.2545 11.6805 11.6805C11.2872 12.0737 10.6684 12.104 10.2405 11.7712L10.1377 11.6805L6 7.54364L1.8623 11.6805C1.43627 12.1065 0.745546 12.1065 0.31952 11.6805C-0.0737354 11.2872 -0.103986 10.6684 0.228769 10.2405L0.31952 10.1377L4.45636 6L0.31952 1.8623C-0.106507 1.43627 -0.106507 0.745546 0.31952 0.31952C0.680004 -0.0409641 1.23001 -0.0964232 1.6488 0.153143L1.75953 0.228769Z" fill="black"/>
</svg>
