<svg
        width="24px"
        height="24px"
        viewBox="0 0 24 24"
        version="1.1"
        xmlns="http://www.w3.org/2000/svg"
        xmlns:xlink="http://www.w3.org/1999/xlink"
      >
        <g
          id="Icon/Content/Categories/Home-appliances"
          stroke="none"
          stroke-width="1"
          fill="none"
          fill-rule="evenodd"
        >
          <rect
            id="Path"
            fill-rule="nonzero"
            x="0"
            y="0"
            width="24"
            height="24"
          ></rect>
          <path
            class="stylesvg"
            d="M6.87486889,1.99341803 L17.1848701,1.99966346 C17.4915633,2.00018589 17.7400889,2.24886211 17.7404256,2.55555556 L17.7404256,3.11111111 L17.8092783,3.11111111 C18.1564622,3.11111111 18.4871905,3.24382408 18.7156649,3.47464105 C18.9116397,3.67261008 19.0166934,3.92626913 19.0139482,4.18657474 L19.0034276,4.31705437 L18.7861606,5.36536777 C18.9421022,5.34401148 19.1349646,5.33333333 19.3647475,5.33333333 C20.5076155,5.33333333 21.7546184,5.60726699 21.9337569,7.07325575 C21.8954208,9.03055269 21.835708,10.4828921 21.7546184,11.4302741 C21.6329841,12.851347 20.6870049,13.0361079 19.5432407,13.1111111 C18.8896612,13.1539701 18.1408251,13.1405949 17.2967325,13.0709856 L16.9537569,13.0390815 L17.1947569,13.0610815 L17.1109313,13.4696706 C17.31432,13.6672921 17.4387086,13.9311182 17.4393277,14.2210656 C17.4398722,14.6731568 17.5266418,15.113252 17.6981136,15.535114 L17.8111486,15.7859933 L18.4233407,17.0210214 C18.761953,17.7039961 18.9553739,18.425121 18.9990713,19.1664827 L19.0086187,19.4853959 L19.0086187,20.8903474 C19.0074033,21.45974 18.5281227,21.9284815 17.9109376,21.9925395 L17.7662171,22 L6.29313481,21.9930815 C5.6563137,21.9930815 5.13125105,21.5643783 5.05949119,21.0116056 L5.05110531,20.8819789 L5.05110531,19.5993871 C5.04917004,18.7766261 5.23821465,17.9537049 5.60083054,17.1966107 L5.76681332,16.8763644 L6.16010589,16.1726384 C6.41727978,15.7157582 6.5709706,15.2112319 6.61004405,14.7015682 L6.61997778,14.4465051 L6.61997778,14.2152951 C6.61997778,13.8437504 6.82369804,13.5149524 7.13658252,13.3132516 C6.50205837,9.51171449 6.07696492,7.26364306 5.86154897,6.56791055 C5.50888615,5.42890952 4.32189529,5.00585728 4.13664207,4.76063033 C3.95138886,4.51540338 3.89209975,4.2176923 3.96248379,3.93797572 L4.00849908,3.79994326 L4.07622959,3.66686763 C4.26257249,3.35888614 4.60596598,3.15384456 4.99206312,3.112082 L5.13862795,3.1041926 L17.1097569,3.11108149 L6.31931343,3.1041926 L6.31931343,2.54863704 C6.31901064,2.27249467 6.52045222,2.04340857 6.78441889,2.00035277 L6.87453255,1.99308149 C6.87464473,1.99308149 6.87475691,1.99308152 6.87486889,1.99341803 Z M8.58875691,15.0100815 L8.54238204,15.2695899 C8.4478465,15.7094672 8.29936887,16.4553379 8.09999221,16.8654876 L7.9409637,17.1691318 L7.54911751,17.8698656 C7.29401211,18.3260146 7.14214886,18.8303529 7.1047822,19.3410498 L7.09569236,19.7992522 L7.09451212,19.9722382 L16.9166715,19.9791567 L16.9170141,19.6887332 C16.9164697,19.2369176 16.8296877,18.5943528 16.6582277,18.172531 L16.5452028,17.9216767 L15.9330597,16.6868402 C15.7699882,16.3581969 15.6405779,15.7050607 15.5453748,15.3603619 L15.462874,15.0167161 L8.58875691,15.0100815 Z M12.0071315,16 C12.5553639,16 12.999794,16.4477153 12.999794,17 C12.999794,17.5522847 12.5553639,18 12.0071315,18 C11.4588991,18 11.0144689,17.5522847 11.0144689,17 C11.0144689,16.4477153 11.4588991,16 12.0071315,16 Z M7.09451212,5.01608838 L7.36893025,5.26728196 C7.44697947,5.37079595 7.5037613,5.48529138 7.53681413,5.60496377 L7.56186612,5.72614683 L9.19938016,13.1041926 L12.6447569,13.1080815 L15.2037569,13.1100815 L16.7288971,5.02300689 L7.09451212,5.01608838 Z M13.4630903,10 C13.7392327,10 13.9630903,10.2238576 13.9630903,10.5 C13.9630903,10.7761424 13.7392327,11 13.4630903,11 L10.477757,11 C10.2016147,11 9.97775704,10.7761424 9.97775704,10.5 C9.97775704,10.2238576 10.2016147,10 10.477757,10 L13.4630903,10 Z M19.3400038,7.25851491 L19.2527588,7.28221543 L18.3197569,7.61708149 L17.6437569,10.8880815 L19.3188067,10.8888889 C19.5822694,10.8888889 19.8044903,10.7050445 19.8606725,10.456265 L19.8737141,10.3601611 L19.9959553,7.83171828 C19.9994908,7.75858929 19.9885368,7.68548266 19.9637229,7.61660145 C19.8701327,7.35680253 19.602943,7.20955777 19.3400038,7.25851491 Z M14.4594237,7 C14.735566,7 14.9594237,7.22385763 14.9594237,7.5 C14.9594237,7.77614238 14.735566,8 14.4594237,8 L9.48142372,8 C9.20528134,8 8.98142372,7.77614238 8.98142372,7.5 C8.98142372,7.22385763 9.20528134,7 9.48142372,7 L14.4594237,7 Z"
            id="Combined-Shape"
            fill="#006FB9"
            fill-rule="nonzero"
          ></path>
        </g>
      </svg>