<svg width="24px" height="24px" viewBox="0 0 24 24" version="1.1" xmlns="http://www.w3.org/2000/svg"
    xmlns:xlink="http://www.w3.org/1999/xlink">
    <g id="Icon/Content/Categories/Sports" stroke="none" stroke-width="1" fill="none"
        fill-rule="evenodd">
        <rect id="Path" fill-rule="nonzero" x="0" y="0" width="24" height="24" />
        <path class="stylesvg"
            d="M11.8925153,2.11135255 C17.4066829,2.11135255 21.8926388,6.59730835 21.8926388,12.111476 C21.8926388,17.6255845 17.4067421,22.1113525 11.8925153,22.1113525 C6.37834771,22.1113525 1.8926388,17.6256436 1.8926388,12.111476 C1.8926388,6.59724923 6.37840685,2.11135255 11.8925153,2.11135255 Z M11.8925153,3.93180149 C10.2375357,3.93180149 8.64193579,4.43371098 7.27835306,5.3722083 L7.1601697,5.45556524 L7.27023694,5.55291902 C9.10911614,7.2335975 10.167939,9.49501045 10.2529817,11.9177907 L10.258536,12.2346862 C10.258536,14.6976655 9.23510549,17.0439184 7.41499629,18.7836374 L7.3138965,18.875308 L7.42197019,18.9496314 C8.66013907,19.7631871 10.0779971,20.2223588 11.5515359,20.2838039 L11.8925153,20.2909036 C13.4813412,20.2909036 15.0159268,19.829489 16.3436468,18.9623925 L16.4697433,18.875308 L16.3705669,18.7841514 C14.6271213,17.1179778 13.616825,14.8978794 13.5322689,12.554904 L13.5264947,12.2346862 C13.5264947,9.68563558 14.6016642,7.29699151 16.5240452,5.54447645 L16.6234701,5.45556524 L16.508456,5.37339735 C15.2340139,4.49587514 13.7585134,4.00060422 12.2225293,3.93846819 L11.8925153,3.93180149 Z M17.9958863,6.68841372 L17.8905618,6.77786999 C16.2583351,8.20063812 15.3469436,10.1546547 15.3469436,12.2346862 C15.3469436,14.2456534 16.215234,16.1648979 17.7553,17.5752321 L17.8704776,17.6768458 L17.977735,17.563075 C19.2523612,16.1432548 19.9875622,14.345688 20.0653171,12.4474481 L20.0721899,12.111476 C20.0721899,10.1638884 19.3785641,8.30468021 18.1161752,6.82352442 L17.9958863,6.68841372 Z M5.78876483,6.68740236 L5.68101701,6.80946873 C4.40957249,8.29479923 3.71308779,10.1597267 3.71308779,12.111476 C3.71308779,14.1293304 4.45530908,16.0507448 5.79595917,17.5502527 L5.91417354,17.6768458 L6.02056797,17.5836226 C7.49469655,16.2378829 8.35372227,14.4290895 8.43219154,12.5215173 L8.43808708,12.2346861 C8.43808708,10.1560823 7.52827978,8.20616671 5.90354738,6.78544786 L5.78876483,6.68740236 Z"
            id="Sports" fill="#006FB9" fill-rule="nonzero" />
    </g>
</svg>