<svg width="24px" height="24px" viewBox="0 0 24 24" version="1.1" xmlns="http://www.w3.org/2000/svg"
    xmlns:xlink="http://www.w3.org/1999/xlink">
    <g id="Icon/Content/Categories/Home" stroke="none" stroke-width="1" fill="none"
        fill-rule="evenodd">
        <rect id="Path" fill-rule="nonzero" x="0" y="0" width="24" height="24" />
        <g id="Icono-Ferreteria" transform="translate(2.000000, 2.000000)">
            <path class="stylesvg"
                d="M8.94392976,-0.70748549 C9.54395956,-1.06750335 10.282062,-1.09519703 10.9033338,-0.790566525 L11.0560703,-0.707485478 L20.5144958,4.96756983 C20.988076,5.25171799 21.1416411,5.86597825 20.8574929,6.33955851 C20.5936411,6.77931162 20.0451517,6.94313325 19.5889674,6.73678777 L19.4855042,6.68255568 L10.0270788,1.00750038 L10,1 L9.97292126,1.00750037 L0.514495756,6.68255568 C0.0409154904,6.96670384 -0.573344765,6.81313878 -0.857492925,6.33955851 C-1.12134479,5.89980541 -1.00778066,5.3387517 -0.611036157,5.03333989 L-0.514495756,4.96756983 L8.94392976,-0.70748549 Z"
                id="Path-9" fill="#006FB9" fill-rule="nonzero" />
            <path class="stylesvg"
                d="M17,-0.174937242 C17.5128358,-0.174937242 17.9355072,0.211102948 17.9932723,0.708441632 L18,0.825062758 L18,3.82506276 C18,4.37734751 17.5522847,4.82506276 17,4.82506276 C16.4871642,4.82506276 16.0644928,4.43902257 16.0067277,3.94168388 L16,3.82506276 L16,0.825062758 C16,0.272778008 16.4477153,-0.174937242 17,-0.174937242 Z"
                id="Path-10" fill="#006FB9" fill-rule="nonzero" />
            <g id="Group-8" transform="translate(6.000000, 4.825063)">
                <path class="stylesvg"
                    d="M5.44725722,3.17493724 L3.55274278,3.17493724 C2.69518662,3.17493724 2,3.87012386 2,4.72768002 L2,12.6221945 C2,13.4797506 2.69518662,14.1749372 3.55274278,14.1749372 L5.44725722,14.1749372 C6.30481338,14.1749372 7,13.4797506 7,12.6221945 L7,4.72768002 C7,3.87012386 6.30481338,3.17493724 5.44725722,3.17493724 Z M5,5.17493724 L5,12.1749372 L4,12.1749372 L4,5.17493724 L5,5.17493724 Z"
                    id="Rectangle" fill="#006FB9" fill-rule="nonzero" />
                <path class="stylesvg"
                    d="M1.68321001,-0.590887101 C0.667149516,-0.204051158 -0.195030122,0.409612458 -0.646560257,1.05829146 L-0.721001313,1.17259021 C-1.34989899,2.20771667 -0.872396555,3.4 0.505815524,3.4 L1.536,3.399 L1.5369194,4 C1.5369194,4.55228475 1.98463465,5 2.5369194,5 L7,5 C7.55228475,5 8,4.55228475 8,4 L8,0.343672438 C8,-0.126600492 7.67232569,-0.533330864 7.21282674,-0.633417517 C5.07021776,-1.10011403 3.3152167,-1.12756677 1.93717745,-0.680317842 L1.68321001,-0.590887101 Z M6,1.168 L6,3 L3.536,3 L3.5369194,2.4 L3.53019167,2.28337887 C3.47242656,1.78604019 3.04975524,1.4 2.5369194,1.4 L2.108,1.399 L2.19965288,1.35770007 L2.39482358,1.27823198 C3.20165327,0.971054675 4.32228952,0.913458931 5.74988299,1.12825708 L6,1.168 Z"
                    id="Path-14" fill="#006FB9" fill-rule="nonzero" />
                <rect class="stylesvg" id="Rectangle" stroke="#006FB9" stroke-width="2" x="7" y="2"
                    width="1" height="1" rx="0.5" />
            </g>
        </g>
    </g>
</svg>