<svg width="24px" height="24px" viewBox="0 0 24 24" version="1.1" xmlns="http://www.w3.org/2000/svg"
    xmlns:xlink="http://www.w3.org/1999/xlink">
    <g id="Icon/Content/Categories/Man" stroke="none" stroke-width="1" fill="none"
        fill-rule="evenodd">
        <rect id="Path" fill-rule="nonzero" x="0" y="0" width="24" height="24" />
        <path class="stylesvg"
            d="M14.3744022,2 C15.1498832,2.00431824 15.3572491,2.01886467 15.473976,2.05885169 L15.473976,2.05885169 L15.5394695,2.08729932 L15.6393023,2.10449842 C15.978768,2.17081655 16.316997,2.2703194 16.6318219,2.3955777 L16.6318219,2.3955777 L16.8632058,2.49423449 L17.1801394,2.64969671 C18.8961879,3.56340487 20,5.31692852 20,7.27028769 L20,7.27028769 L20,12.3927747 C20,13.3355757 19.4367816,14.1364352 18.6330999,14.5068967 L18.6323461,15.1052305 C18.6323461,18.9096687 15.6657841,22 11.9992244,22 C8.3327062,22 5.36610276,18.9097116 5.36610276,15.1052305 L5.36610276,15.1052305 L5.36597929,14.5316491 C5.01276393,14.3782625 4.70236381,14.1388751 4.46368599,13.8290412 L4.48150863,13.8505479 L4.27301766,13.5815296 L4.27259949,13.5359885 L4.21201792,13.4178977 C4.16202326,13.3110401 4.11962228,13.1990306 4.08668247,13.0855468 L4.08668247,13.0855468 L4.04460205,12.9146752 C4.02107258,12.7998489 4.0135189,12.7653239 4.01098482,12.7431609 L4.01098482,12.7431609 L4.00222946,12.473949 L4,7.1310718 C4,6.00340324 4.78811197,5.07364005 5.83658306,4.81424945 L5.83658306,4.81424945 L5.84519638,4.81196552 L5.90755359,4.69914567 C6.8223834,3.11071765 8.52819418,2.08294149 10.420692,2.00623167 L10.420692,2.00623167 L10.6486491,2.00161659 Z M9.39131792,9.49580947 C8.98440742,10.4706692 8.21822649,11.1313813 7.26630195,11.3511141 L7.26630195,11.3511141 L7.205,11.362 L7.20586679,14.7269504 L7.143,14.726 L7.14398895,15.1052305 C7.14398895,17.7699509 9.10586078,19.9492583 11.5943168,20.164314 L11.8088692,20.1779024 L11.9992244,20.1817376 C14.6764304,20.1817376 16.8543959,17.912904 16.8543959,15.1052305 L16.8543959,15.1052305 L16.854,14.726 L16.7370165,14.7269504 L16.736,11.951 L16.3843637,11.9167101 C14.1685471,11.6643364 12.0308824,10.9786457 10.0707558,9.89382638 L9.6534823,9.65526844 Z M12.4500526,3.81801482 L10.6491908,3.81987883 C9.13875272,3.81987883 7.79581571,4.69645075 7.24882065,6.00791045 L7.24882065,6.00791045 L7.01840473,6.56034907 L6.43112505,6.56034907 C6.05827969,6.56034907 5.77795013,6.82935455 5.77795013,7.1310718 L5.77795013,7.1310718 L5.7767453,9.36125805 C5.89040645,9.23739992 6.02169013,9.13759748 6.16863506,9.06455633 L6.16863506,9.06455633 L6.28168826,9.01489514 C6.41408735,8.96250586 6.50800673,8.94582516 6.67284811,8.92726082 L6.67284811,8.92726082 L6.80283592,8.91164539 C7.03831899,8.88083386 7.13823324,8.84893756 7.30753392,8.75114183 C7.60103956,8.58156381 7.78228271,8.30899166 7.87883405,7.9583422 L7.87883405,7.9583422 L7.91647548,7.84231481 C8.2115088,7.0520353 9.15511698,6.72664196 9.87572553,7.16409045 C12.1099219,8.51888137 14.6403447,9.28879221 17.2463858,9.43791358 C17.6175494,9.45901371 17.95127,9.63118355 18.1831647,9.89633696 L18.1831647,9.89633696 L18.2215072,9.94492028 L18.2220499,7.27028769 C18.2220499,6.0290893 17.5192122,4.89787238 16.3833073,4.27646218 L16.3833073,4.27646218 L16.2097073,4.18712417 L15.9451034,4.07313523 C15.6943255,3.97697284 15.4099078,3.90130584 15.1344787,3.86124652 L15.1344787,3.86124652 L14.9989726,3.84010427 L14.8383623,3.83269943 C14.7714317,3.83027369 14.6937974,3.82816228 14.605042,3.82635153 L14.605042,3.82635153 L12.4500526,3.81801482 Z"
            id="Combined-Shape" fill="#006FB9" fill-rule="nonzero" />
    </g>
</svg>