<svg width="24px" height="24px" viewBox="0 0 24 24" version="1.1" xmlns="http://www.w3.org/2000/svg"
    xmlns:xlink="http://www.w3.org/1999/xlink">
    <g id="Icon/Content/Categories/Music" stroke="none" stroke-width="1" fill="none"
        fill-rule="evenodd">
        <rect id="Path" fill-rule="nonzero" x="0" y="0" width="24" height="24" />
        <path class="stylesvg"
            d="M19.4693892,2.08311288 L19.8307048,2.44318326 C20.0049132,2.31020142 20.2584082,2.32005495 20.4214315,2.48305402 L21.5166308,3.57787704 C21.6795892,3.74077952 21.689531,3.99398838 21.5567516,4.16810511 L21.9168213,4.52974143 C22.0276765,4.64055861 22.0276765,4.82024501 21.9168213,4.93106219 C21.8798695,4.96800125 21.8352423,4.99262729 21.7880786,5.00494031 L21.7160733,5.01421236 C21.6434504,5.01421236 21.5707529,4.98650807 21.515288,4.93109948 L21.115,4.531 L20.801,4.777 L21.1545235,5.13010058 C21.2469029,5.22244823 21.2622994,5.36264762 21.2007132,5.47094585 L21.1545235,5.53145863 C21.1175717,5.56839769 21.0729445,5.59302373 21.0257808,5.60533675 L20.9537755,5.61457151 C20.8811153,5.61457151 20.8084551,5.58686722 20.7529902,5.53145863 L20.35,5.129 L19.2274994,6.00891959 C19.150366,6.06939688 19.0438222,6.07006881 18.9664135,6.01456527 L18.248,6.758 L18.2793314,6.798246 C18.3563112,6.92333228 18.3409153,7.08974525 18.2331435,7.19830085 C18.1702766,7.26162495 18.0878643,7.293287 18.005452,7.293287 C17.9335801,7.293287 17.8616438,7.26918136 17.8026835,7.22097008 L17.094,7.955 L17.1521942,8.01451487 C17.2779279,8.14116307 17.2779279,8.34656157 17.1521942,8.47320978 C17.0893273,8.53653388 17.0068727,8.56819593 16.9245027,8.56819593 C16.8420904,8.56819593 16.7596781,8.53653388 16.6967689,8.47320978 L16.645,8.421 L15.937,9.155 L15.978947,9.19630554 C16.1046808,9.32295375 16.1046808,9.52835225 15.978947,9.65500046 C15.9160801,9.71832456 15.8336678,9.74998661 15.7512555,9.74998661 C15.6688855,9.74998661 15.5864309,9.71832456 15.5235217,9.65500046 L15.489,9.621 L14.91,10.221 L15.048365,10.3597154 C16.440568,11.7514401 16.5012897,13.9916903 15.1978,15.4241044 L15.0529187,15.5744106 C14.7494879,15.8716502 14.4010084,16.1103699 14.0214135,16.2839015 C13.6621373,16.4481113 13.4270582,16.7997981 13.4154484,17.1852522 C13.3777681,18.436071 12.8750522,19.6313231 11.9783483,20.537754 C10.0948153,22.4417939 7.03817701,22.4802005 5.06754056,20.6889648 L4.89144639,20.5210859 L3.48226515,19.1123515 C1.51810796,17.1488691 1.49935465,13.9521822 3.46558659,12.0084633 C4.37108212,11.1133 5.56326034,10.6122164 6.81015251,10.5746816 C7.20142543,10.562904 7.55590445,10.3261194 7.71959297,9.96824981 C7.85881179,9.66383355 8.03984264,9.37950342 8.25912246,9.12246855 L8.43069833,8.93492291 L8.57553282,8.79512826 C9.9530159,7.53736361 12.0789604,7.54730519 13.475583,8.79571781 L13.6276869,8.93952543 L13.775,9.087 L14.38,8.504 L14.3399237,8.46279426 C14.2141899,8.33614605 14.2141899,8.13074755 14.3399237,8.00409934 C14.4656998,7.87745114 14.6695729,7.87745114 14.795349,8.00409934 L14.846,8.055 L15.58,7.348 L15.5132131,7.28100358 C15.3874794,7.15435537 15.3874794,6.94895687 15.5132131,6.82230867 C15.6390315,6.69561785 15.8429047,6.69561785 15.9686384,6.82230867 L16.045,6.9 L16.779,6.193 L16.7767556,6.19005841 C16.6510219,6.06341021 16.6510219,5.85801171 16.7767556,5.7313635 C16.9025317,5.6047153 17.1064048,5.6047153 17.2321809,5.7313635 L17.245,5.744 L17.986,5.031 L17.968841,5.0081116 C17.9292172,4.93380353 17.9352747,4.8407529 17.9895535,4.77139894 L18.869,3.648 L18.4672531,3.24650683 C18.3563979,3.13568965 18.3563979,2.95596596 18.4672531,2.84514878 C18.578183,2.73429432 18.7579311,2.7343316 18.8687864,2.84514878 L19.221,3.198 L19.467,2.884 L19.0678559,2.48447093 C18.9570006,2.37365375 18.9570006,2.19393006 19.0678559,2.08311288 C19.1787485,1.97229571 19.3584966,1.97229571 19.4693892,2.08311288 Z M9.71503685,10.2125002 C9.60253375,10.3272493 9.50726339,10.4538773 9.43011641,10.589925 L9.35904356,10.7290215 L9.27930995,10.889837 C8.83098463,11.7270777 7.99430234,12.2879003 7.05352965,12.3799552 L6.86407146,12.3920589 L6.66554426,12.4041807 C5.94119118,12.4709719 5.25953244,12.7825591 4.72994083,13.3061077 C3.53296406,14.4893793 3.499688,16.4178778 4.61946917,17.6793255 L4.75379121,17.8218366 L6.16297246,19.230571 C7.42166852,20.4888346 9.46669946,20.5008235 10.6997063,19.2543924 C11.2179446,18.7305325 11.527504,18.058918 11.5974527,17.3453385 L11.611218,17.1301114 L11.6223065,16.9508536 C11.7110052,16.0047894 12.2704076,15.1641667 13.1049637,14.7131459 L13.2754857,14.6282207 L13.415431,14.5567645 C13.5522455,14.4792531 13.6793931,14.3836837 13.7944006,14.2710228 C14.4753418,13.6038738 14.5070521,12.5116447 13.8920837,11.7761666 L13.7768474,11.6502388 L13.652,11.526 L13.047,12.153 L13.0918935,12.1974 C13.2176272,12.3240482 13.2176272,12.5294467 13.0918935,12.6560949 C13.0290266,12.7193764 12.9466143,12.751081 12.864202,12.751081 C12.7817897,12.751081 12.6993774,12.719419 12.6364682,12.6560949 L12.599,12.619 L12.2653263,12.9654941 C12.2063925,13.0266449 12.1164729,13.039591 12.0444382,13.0038932 L11.9945291,12.9679924 L11.028201,12.0020335 C10.9681332,11.9419864 10.9568359,11.851871 10.9938696,11.780522 L11.0307001,11.731292 L11.382,11.392 L11.3615736,11.3719281 C11.2358398,11.2452799 11.2358398,11.0398814 11.3615736,10.9132332 C11.4873919,10.7865424 11.6912651,10.7865424 11.8169988,10.9132332 L11.847,10.944 L12.47,10.344 L12.3561693,10.2300488 C11.6207172,9.49484935 10.4254273,9.48792165 9.71503685,10.2125002 Z M6.94490776,15.6914028 L8.30385454,17.0498827 C8.41470981,17.1606999 8.41470981,17.3404236 8.30385454,17.4512408 C8.24842691,17.5066494 8.17576673,17.5343537 8.10310655,17.5343537 C8.03048367,17.5343537 7.95778619,17.5066494 7.90232126,17.4512408 L6.54337448,16.0927609 C6.43251922,15.9819437 6.43251922,15.80222 6.54337448,15.6914028 C6.65426705,15.5805857 6.8340152,15.5805857 6.94490776,15.6914028 Z M9.64027219,12.7960244 C10.501812,12.7960244 11.2002281,13.4942005 11.2002281,14.3554443 C11.2002281,15.2166882 10.501812,15.9148643 9.64027219,15.9148643 C8.77873235,15.9148643 8.08031632,15.2166882 8.08031632,14.3554443 C8.08031632,13.4942005 8.77873235,12.7960244 9.64027219,12.7960244 Z"
            id="Combined-Shape" fill="#006FB9" fill-rule="nonzero" />
    </g>
</svg>