<svg width="24px" height="24px" viewBox="0 0 24 24" version="1.1" xmlns="http://www.w3.org/2000/svg"
    xmlns:xlink="http://www.w3.org/1999/xlink">
    <g id="Icon/Content/Categories/Toys" stroke="none" stroke-width="1" fill="none"
        fill-rule="evenodd">
        <rect id="Path" fill-rule="nonzero" x="0" y="0" width="24" height="24" />
        <path class="stylesvg"
            d="M6.46459223,3.00043075 C7.39450985,3.00169428 8.26807585,3.31803657 8.92495848,3.89096188 L10.0074467,4.82901901 C10.1007469,4.90979886 10.1532179,5.0195825 10.1532179,5.13355877 L10.153,6.605 L11.5568747,8.2216618 L12.051,8.675 L13.38,8.675 L13.9470657,8.2216618 L15.9107679,8.2216618 C16.5264432,8.2216618 17.1285376,8.33973524 17.6872014,8.5645774 C17.9204034,7.63706416 18.7844672,6.94606351 19.8109207,6.94606351 C21.0176871,6.94606351 22,7.90115798 22,9.07567325 L22,12.8024903 C22,13.0968024 21.7552244,13.3349282 21.4527302,13.3349282 C21.1502359,13.3349282 20.9054603,13.0968024 20.9054603,12.8025258 C20.9054603,12.4024461 20.7143328,12.0912308 20.4580242,11.8537435 C20.4599642,12.071254 20.4240645,12.3144561 20.3591047,12.6215334 L20.3152022,12.8203681 L20.1921967,13.3517602 L20.1528538,13.5518678 L20.6059626,17.7191477 C20.6431149,17.6921375 20.6768507,17.6668071 20.7072623,17.6433614 L20.792839,17.5754311 C20.8550076,17.5245173 20.8945412,17.4883481 20.9131546,17.4707302 L20.9255587,17.4587372 C21.1570102,17.2220304 21.5253011,17.2262868 21.7499418,17.4678286 C21.9745435,17.7105688 21.9745435,18.0986059 21.7476455,18.338908 L21.7396725,18.3472449 L21.7092151,18.3777358 C21.3599717,18.7187007 18.7685907,21 11.9943404,21 C4.829268,21 2.27361056,18.4478807 2.17101998,18.338908 C1.94299334,18.0967877 1.94299334,17.7044941 2.17101998,17.4623737 C2.39904661,17.2214518 2.76733745,17.220832 2.99310678,17.4587372 C3.00408476,17.4700091 3.25581076,17.7110483 3.81057601,18.0332288 L4.09367515,17.1754927 L4.93416725,14.7599009 C5.38332456,13.434826 5.64214034,12.5368339 5.7427518,11.8238974 L5.76317609,11.6625485 L5.78480464,11.4093678 L5.78723975,11.3508099 L5.68162506,11.3822722 C4.90563246,11.5801352 4.03006837,11.2479836 3.30337989,10.6263266 L3.15003018,10.4887708 L3.03254065,10.3742594 C2.06324899,9.42848432 2.02110587,7.8855229 2.90513497,6.88887232 L3.03142504,6.75645904 L3.84632646,5.9585423 L4.049,5.756 L3.29391048,5.10199921 C3.09958201,4.93374852 3.09958201,4.66114164 3.29391048,4.49289096 L4.00034538,3.88125566 C4.65623299,3.31295373 5.52883713,3 6.45683103,3 L6.46459223,3.00043075 Z M13.6967677,16.5992636 L11.0215989,16.5992636 C10.2598768,16.5992636 9.5831444,17.0446537 9.28573113,17.7128539 L9.22791288,17.8593689 L8.97557492,18.6206694 L8.74356377,19.3071671 L8.65551998,19.54228 C9.62228915,19.6770321 10.7308104,19.7602233 11.9943404,19.7602233 C13.3958934,19.7602233 14.6035373,19.6578481 15.6367216,19.4962795 L15.6470529,19.5342906 C15.611934,19.4299537 15.5939352,19.33884 15.5854578,19.2223009 L15.5798727,19.0958553 L15.5799247,18.8368487 L15.5884778,18.4640266 L15.5838637,18.3218778 C15.5185544,17.4148824 14.7840091,16.6803464 13.853573,16.6055393 L13.6967677,16.5992636 Z M15.9107679,10.0067858 L14.582,10.006 L14.5828842,12.2263024 C14.5828842,12.5234618 14.3152537,12.7694879 13.9664891,12.8117641 L13.8596122,12.8181818 L12.831,12.818 L12.831,13.974 L13.3264289,14.8139504 L13.6967677,14.8141396 C15.5162964,14.8141396 17.0321841,16.1507945 17.2983993,17.9026038 L17.3220973,18.0918442 L17.3271902,18.1637355 L17.4072638,18.1467296 C17.7437662,18.0660428 18.0588879,17.9774256 18.353211,17.8819525 L18.6406228,17.784234 L18.8420331,17.7085289 L18.4055896,13.6806132 L18.4002866,13.5825304 C18.4002866,13.4182601 18.4102162,13.3076939 18.454046,13.0941715 L18.4846037,12.95245 L18.5969847,12.4700226 L18.6914528,12.0174984 C18.7053757,11.9516844 18.7146485,11.9238205 18.7232831,11.9476504 C18.5555291,11.4981121 18.2760668,11.089685 17.9218063,10.7723368 C17.428202,10.3283844 16.8014843,10.06345 16.1344708,10.0149026 L15.9107679,10.0067858 Z M6.41344713,5.94766048 L6.31764467,6.0070563 L6.24146935,6.07282961 L5.06380377,7.24170538 L4.24348541,8.04495271 C3.95055994,8.33073849 3.95055994,8.79885667 4.25442933,9.09554052 C4.71828988,9.5641718 5.20685844,9.7157708 5.30257329,9.62110483 C5.35081349,9.57094381 5.4101368,9.50979401 5.47760311,9.44092892 L5.58454229,9.33225401 L6.84042456,8.08337008 L7.31908284,9.61568844 C7.79058469,11.2261621 7.59599162,12.3978889 6.54639878,15.4701892 L6.43066212,15.8067434 L5.83102134,17.5139504 L6.05805887,17.6111323 C6.30097751,17.7109169 6.56182986,17.8058295 6.84199807,17.8948655 L7.12865609,17.9819054 L7.3204709,18.0352066 L7.5722069,17.2778927 C8.06141938,15.862929 9.34857143,14.9006813 10.8198818,14.8196824 L11.0215989,14.8141396 L11.4902292,14.8139504 L11.955,13.849 L11.955,12.818 L10.9279977,12.8181818 C10.5648713,12.8181818 10.2642292,12.5991701 10.2125681,12.3137636 L10.2047256,12.2263024 L10.204,9.363 L8.652,7.572 L6.97261038,5.87354673 C6.78533333,5.83656801 6.58113319,5.86108615 6.41344713,5.94766048 Z"
            id="Combined-Shape" fill="#006FB9" fill-rule="nonzero" />
    </g>
</svg>