<svg width="24px" height="24px" viewBox="0 0 24 24" version="1.1" xmlns="http://www.w3.org/2000/svg"
    xmlns:xlink="http://www.w3.org/1999/xlink">
    <g id="Icon/Content/Categories/Books" stroke="none" stroke-width="1" fill="none"
        fill-rule="evenodd">
        <rect id="Path" fill-rule="nonzero" x="0" y="0" width="24" height="24" />
        <path class="stylesvg"
            d="M16.9995208,3 C17.8084868,3 18.5053011,3.47764426 18.8204929,4.16488362 L19.675278,4.02614216 C19.7826168,4.00874305 19.8912178,4 20,4 C21.0543618,4 21.9181651,4.8037338 21.9945143,5.82319022 L22,5.97023085 L22,17.8060581 C22,18.7077119 21.3802522,19.4868375 20.5076672,19.7118235 L20.3511316,19.7456867 L13.3856521,20.9693914 C13.2713949,20.9894643 13.1555809,20.9997016 13.0395214,21 C12.658608,21.0009258 12.3022998,20.8969001 11.9988129,20.7155677 C11.6969239,20.8971266 11.3409771,21.0009248 10.9604786,21 C10.8444191,20.9997016 10.7286051,20.9894643 10.6143479,20.9693914 L3.64886836,19.7456867 C2.69480381,19.5780754 2,18.7607503 2,17.8060581 L2,5.97023085 C2,4.8821024 2.8954305,4 4,4 C4.10878224,4 4.21738315,4.00874305 4.324722,4.02614216 L5.17950712,4.16488362 C5.49469887,3.47764426 6.19151324,3 7.00047919,3 C7.1329278,3 7.26504903,3.01308434 7.3948978,3.03906039 L11.3925018,3.83877502 C11.6116068,3.88260664 11.8162779,3.96106221 12.0012341,4.06771328 C12.1386603,3.98751031 12.2879491,3.92344432 12.4462706,3.87796629 L12.6074982,3.83877502 L16.6051022,3.03906039 C16.734951,3.01308434 16.8670722,3 16.9995208,3 Z M19,6.131 L19,15.147886 C19,16.0285457 18.4194733,16.7972384 17.5849285,17.0507602 L17.4255544,17.0921599 L13.448971,17.9543462 C13.3103492,17.9844016 13.1689064,17.9997028 13.0270302,18 C12.6516384,18.0007611 12.3001851,17.8986216 11.9996515,17.7203107 C11.7005985,17.8983937 11.3487801,18.0007619 10.9729698,18 C10.8310936,17.9997028 10.6896508,17.9844016 10.551029,17.9543462 L6.57444564,17.0921599 C5.65536026,16.8928876 5,16.083587 5,15.147886 L5,6.132 L4,5.96926294 L4,17.8060581 L10.964,19.0289382 L11.9954198,18.409236 L13.0345204,19.0297628 L19.922157,17.8213095 L20,17.8060581 L20.0013494,6.04259254 L19.999,5.96926294 L19,6.131 Z M7.00047919,4.98992345 L7.00047919,15.147886 L10.9770626,16.0100722 L10.9980832,5.78963809 L7.00047919,4.98992345 Z M16.9995208,4.98992345 L13.0019168,5.78963809 L13.0229374,16.0100722 L16.9995208,15.147886 L16.9995208,4.98992345 Z"
            id="Books" fill="#006FB9" fill-rule="nonzero" />
    </g>
</svg>