<svg width="24px" height="24px" viewBox="0 0 24 24" version="1.1" xmlns="http://www.w3.org/2000/svg"
    xmlns:xlink="http://www.w3.org/1999/xlink">
    <g id="Icon/Content/Categories/Pets" stroke="none" stroke-width="1" fill="none"
        fill-rule="evenodd">
        <rect id="Path" fill-rule="nonzero" x="0" y="0" width="24" height="24" />
        <path class="stylesvg"
            d="M12,9 C13.5392962,9 14.8755143,9.86948124 15.544314,11.1441037 C15.6735428,11.3516096 15.8092597,11.554643 16,11.7623577 C16.2828777,12.0704093 16.3827945,12.180114 16.7163457,12.385741 C18.0666731,13.0283698 19,14.4051898 19,16 C19,18.209139 17.209139,20 15,20 C14.2567674,20 13.5608792,19.7972946 12.9646044,19.4441528 C12.6588908,19.3281135 12.4249277,19.2697858 12.2759486,19.2634392 C11.8474975,19.245187 11.6106053,19.2866404 10.9141778,19.5118952 C10.3448749,19.8237593 9.69301908,20 9,20 C6.790861,20 5,18.209139 5,16 C5,14.384884 5.95724529,12.9933446 7.3353459,12.3617718 C7.47177782,12.2714014 7.54753568,12.1916481 7.65601316,12.0920354 C8.00444856,11.772074 8.25894669,11.4546624 8.5256971,11 C8.54774877,10.9624141 8.57222563,10.9270416 8.59884166,10.8939047 C9.30376576,9.75728547 10.5634461,9 12,9 Z M12,11 C11.3086291,11 10.6991935,11.3508068 10.3399849,11.8841287 C10.3243207,11.9235784 10.3046909,11.9620604 10.2824317,12 L10.1789416,12.1719287 C10.1612658,12.2107382 10.1447942,12.2502118 10.1295745,12.2903017 L10.1021085,12.3018589 C9.83745571,12.7331892 9.63133204,13.0001125 9.22229622,13.375722 C8.74234084,13.8164556 8.24871141,14.2079676 7.7116567,14.4730636 C7.27617273,14.8376366 7,15.3865665 7,16 C7,17.1045695 7.8954305,18 9,18 C9.31613334,18 9.6151354,17.9266523 9.88091678,17.7960464 C10.0935406,17.645746 10.2998274,17.5452267 10.5,17.4930861 C11.2001342,17.3107168 11.6876259,17.2365624 12.3610724,17.2652516 C12.8564856,17.2863564 13.1253738,17.3444842 13.8143181,17.6466454 C13.8630799,17.6680317 13.9121342,17.6938548 13.9607726,17.7235138 L13.9787288,17.7204028 C14.2770144,17.8976469 14.6265543,18 15,18 C16.1045695,18 17,17.1045695 17,16 C17,15.2615543 16.5997946,14.6165815 16.0044458,14.2701438 C15.9510956,14.2516251 15.8989985,14.2269077 15.8484377,14.1972437 C15.2244135,13.8311287 14.9090866,13.644473 14.4531743,13.1479882 C14.1823593,12.8530727 13.8389923,12.3278979 13.5728242,11.7676413 C13.2085466,11.2999569 12.6393027,11 12,11 Z M19.5,7 C20.8807119,7 22,8.11928813 22,9.5 C22,10.8807119 20.8807119,12 19.5,12 C18.1192881,12 17,10.8807119 17,9.5 C17,8.11928813 18.1192881,7 19.5,7 Z M4.5,7 C5.88071187,7 7,8.11928813 7,9.5 C7,10.8807119 5.88071187,12 4.5,12 C3.11928813,12 2,10.8807119 2,9.5 C2,8.11928813 3.11928813,7 4.5,7 Z M19.5,9 C19.2238576,9 19,9.22385763 19,9.5 C19,9.77614237 19.2238576,10 19.5,10 C19.7761424,10 20,9.77614237 20,9.5 C20,9.22385763 19.7761424,9 19.5,9 Z M4.5,9 C4.22385763,9 4,9.22385763 4,9.5 C4,9.77614237 4.22385763,10 4.5,10 C4.77614237,10 5,9.77614237 5,9.5 C5,9.22385763 4.77614237,9 4.5,9 Z M15.5,3 C16.8807119,3 18,4.11928813 18,5.5 C18,6.88071187 16.8807119,8 15.5,8 C14.1192881,8 13,6.88071187 13,5.5 C13,4.11928813 14.1192881,3 15.5,3 Z M8.5,3 C9.88071187,3 11,4.11928813 11,5.5 C11,6.88071187 9.88071187,8 8.5,8 C7.11928813,8 6,6.88071187 6,5.5 C6,4.11928813 7.11928813,3 8.5,3 Z M15.5,5 C15.2238576,5 15,5.22385763 15,5.5 C15,5.77614237 15.2238576,6 15.5,6 C15.7761424,6 16,5.77614237 16,5.5 C16,5.22385763 15.7761424,5 15.5,5 Z M8.5,5 C8.22385763,5 8,5.22385763 8,5.5 C8,5.77614237 8.22385763,6 8.5,6 C8.77614237,6 9,5.77614237 9,5.5 C9,5.22385763 8.77614237,5 8.5,5 Z"
            id="Pets" fill="#006FB9" fill-rule="nonzero" />
    </g>
</svg>