<svg width="24px" height="24px" viewBox="0 0 24 24" version="1.1" xmlns="http://www.w3.org/2000/svg"
    xmlns:xlink="http://www.w3.org/1999/xlink">
    <g id="Icon/Content/Categories/Moto" stroke="none" stroke-width="1" fill="none"
        fill-rule="evenodd">
        <rect id="Path" fill-rule="nonzero" x="0" y="0" width="24" height="24" />
        <path class="stylesvg"
            d="M9.0357099,2.37337661 C11.9092395,1.57414586 14.9962181,2.0718359 17.4427372,3.73362278 C19.6742277,5.24938847 21.20532,7.66723689 21.6573417,10.3323192 L21.6573417,10.3323192 L21.77,10.996 L21.804352,11.1462229 C22.2985028,13.4959775 21.853721,16.0997654 20.5026033,18.9429316 L20.356,19.243 L20.3111749,19.3685298 L20.1957065,19.6531203 C19.3173954,21.6164462 17.0773042,22.5190679 15.1154137,21.6957005 L15.1154137,21.6957005 L3.46710635,16.8329318 C2.57274789,16.4211717 2,15.5286446 2,14.5423602 L2,14.5423602 L2,11.9909707 C2,7.77319648 5.14904197,3.45297052 9.0357099,2.37337661 Z M16.4493459,5.24536152 C14.4357358,3.87762615 11.8835958,3.46616405 9.50756657,4.12702226 C6.40820566,4.98792718 3.78821328,8.58234071 3.78821328,11.9909707 L3.78821328,11.9909707 L3.78821328,14.5423602 C3.78821328,14.8109674 3.94669288,15.0579301 4.17550925,15.1639101 L4.17550925,15.1639101 L15.7961404,20.0145044 C16.7632873,20.4203962 17.8494519,20.0611918 18.4064867,19.1978993 L18.4064867,19.1978993 L18.4676561,19.0945291 L11.8563889,15.7478326 C11.070797,15.3500744 10.5558644,14.5620228 10.4945666,13.681899 L10.4945666,13.681899 L10.4884097,13.504735 L10.4884097,11.108057 C10.4884097,9.59445139 11.8034761,8.42894031 13.2671647,8.62022371 L13.2671647,8.62022371 L19.5879717,9.41960642 L19.5519396,9.31117259 C19.0086207,7.75742419 18.0044376,6.37768718 16.6740708,5.40386669 L16.6740708,5.40386669 Z M13.0427138,10.4239237 C12.6410676,10.3714362 12.2766229,10.6944345 12.2766229,11.108057 L12.2766229,11.108057 L12.2766229,13.504735 C12.2766229,13.7647986 12.4221617,14.0032401 12.6535171,14.1203792 L12.6535171,14.1203792 L19.2123353,17.4402323 C20.145832,15.2324371 20.419401,13.2669675 20.0570225,11.5330423 L20.004,11.305 Z"
            id="Combined-Shape" fill="#006FB9" fill-rule="nonzero" />
    </g>
</svg>