<svg width="24px" height="24px" viewBox="0 0 24 24" version="1.1" xmlns="http://www.w3.org/2000/svg"
    xmlns:xlink="http://www.w3.org/1999/xlink">
    <g id="Icon/Content/Categories/Kids" stroke="none" stroke-width="1" fill="none"
        fill-rule="evenodd">
        <rect id="Path" fill-rule="nonzero" x="0" y="0" width="24" height="24" />
        <path class="stylesvg"
            d="M19.9980654,22.6695728 L20,23 L5,23 C5,17.7725314 6.42280902,14.9277187 9.50431973,15.0013961 L9.65468477,15.0071535 C9.99233864,14.9700895 10.3401587,15.0783105 10.5714991,15.3106568 L10.6449213,15.3936896 L12.5414216,17.8166163 L14.3430839,15.4093355 C14.5655008,15.1119975 14.9579494,14.9665081 15.3394682,15.0065139 L15.4956803,15.0013961 C18.5116269,14.9292863 19.9387041,17.6527967 19.9980654,22.6695728 Z M9.2472665,16.8022887 C8.07590201,16.9169988 7.29969181,18.1086314 7.01620864,20.5988247 L6.96905153,21.0786374 L6.958,21.222 L18.041,21.222 L18.0309485,21.0786374 L17.9837914,20.5988247 C17.7014454,18.1186207 16.9303175,16.9265801 15.7668111,16.8037212 L13.4324662,19.9241044 C13.0545858,20.4292736 12.2310977,20.4680839 11.7867988,20.0330724 L11.7032392,19.9397503 L9.2472665,16.8022887 Z M9.51814859,1.41808484 L9.56540695,1.51517708 L9.62965375,1.6881643 L9.7228666,1.92567603 L9.78290776,2.06744655 L9.87149734,2.25668776 L9.93325559,2.37281406 C10.1886388,2.82597917 10.4763288,2.99686606 11.1164575,3.03405109 L11.2705815,3.04032648 L11.535833,3.04124541 L11.7313741,3.03604666 L11.9425529,3.02653648 L12.4135333,2.99590934 L13.8507537,2.87875041 L14.2858443,2.84897224 C15.21898,2.74912706 16.1499607,3.04940041 16.8467043,3.67716642 C17.550767,4.32967676 17.9894055,5.27510828 18.1713225,6.39691333 L18.2128496,6.70117859 L18.2524089,6.71208112 C19.1112317,6.99291739 19.7530367,7.70301194 19.9428924,8.57206618 L19.9731367,8.73681067 L19.9924444,8.90488483 L19.9988648,9.02001311 L20,9.13329514 L19.9960127,9.24287964 C19.9271879,10.3965947 19.0693758,11.343127 17.9335867,11.5617544 L17.7770314,11.5870065 L17.7264802,11.5930554 L17.6721243,11.7158414 C16.8574687,13.4489382 15.2046164,14.6572929 13.2835301,14.9383475 L13.0517487,14.9675973 L12.8176112,14.9877904 L12.6642851,14.9959054 L12.5094061,15 C10.3379119,14.9665254 8.37926334,13.7410576 7.42594045,11.8460149 L7.30726509,11.5966683 L7.28849667,11.5946308 C6.26156406,11.4888126 5.40370296,10.7832381 5.10851959,9.81952592 L5.06459983,9.65657563 L5.03417941,9.50531855 L5.01829452,9.39522307 L5.00760065,9.28866554 C4.92823686,8.27547987 5.47628306,7.32900181 6.37564825,6.86746408 L6.43816382,6.83846908 L6.4053818,6.76559112 C6.09770022,6.05265189 5.96359249,5.35040381 6.00754333,4.66806662 L6.03238016,4.41314149 L6.06904924,4.18539417 L6.10323269,4.02613206 L6.13866882,3.88770217 C6.35449875,3.10102238 6.80518819,2.40287676 7.45585793,1.80650036 C7.7165413,1.56756899 8.00677209,1.34971519 8.2498053,1.20147406 L8.38934756,1.12127118 L8.43712848,1.09686523 C8.48394741,1.07109546 8.53323999,1.05022192 8.58811481,1.03385932 L8.6750023,1.01265047 L8.75403722,1.00214681 C9.06843308,0.979336493 9.36088626,1.13966233 9.51814859,1.41808484 Z M14.249166,6.97756602 L14.2081839,7.01600649 C13.1584835,7.95359868 11.807295,8.48592716 10.3069301,8.62325227 L10.087292,8.64117159 L9.86598855,8.65195248 L9.66553557,8.65505679 C9.2736878,8.6686098 8.88238864,8.63229889 8.49921583,8.5468936 L8.3527321,8.51034203 L8.35329614,9.09585787 C8.35329614,11.373002 10.0543782,13.2484708 12.2038875,13.4135383 L12.394682,13.423631 L12.5159901,13.4254186 C14.6975299,13.4254186 16.5054409,11.6618205 16.6648608,9.42134562 L16.6746168,9.22245183 L16.6763473,9.09589763 L16.6755586,8.29266436 L16.621679,8.29314048 C15.7187546,8.27287732 14.9606743,7.86832912 14.3790205,7.14663939 L14.249166,6.97756602 Z M6.76634955,8.55008402 L6.74613483,8.57719725 C6.64303764,8.72809334 6.58483154,8.90730102 6.58443706,9.09499755 C6.58471876,9.28062887 6.64064921,9.45670693 6.73850595,9.60528615 L6.79725901,9.68634343 L6.78769875,9.58839242 L6.77102595,9.30388045 L6.76735278,9.09594889 L6.76634955,8.55008402 Z M18.2619411,8.59163245 L18.2623181,9.09170668 L18.256404,9.35567444 L18.2373954,9.62763369 L18.2911205,9.54544161 C18.3286719,9.47937148 18.3579975,9.40889821 18.3779915,9.33550195 L18.4008458,9.22340036 L18.4079045,9.15626064 C18.4218655,8.95878972 18.3715007,8.76728671 18.2725583,8.60603727 L18.2619411,8.59163245 Z M8.48364275,3.00788387 L8.37637809,3.11084675 C8.03000706,3.46548299 7.7852792,3.8689472 7.66585196,4.30496956 C7.48370595,4.97091347 7.60493544,5.70948813 8.03999449,6.51946699 L8.15530343,6.72344858 L8.15558179,6.75236467 L8.16675669,6.76115502 C8.45184799,6.97371378 9.1127566,7.1048562 9.84326521,7.08037558 L10.0271652,7.07097034 L10.1550937,7.06066898 C11.6810964,6.91733113 12.9626487,6.27991541 13.7721096,5.15449615 C13.9474228,4.91428497 14.2442013,4.7925057 14.539359,4.83895281 C14.8380287,4.88595259 15.0816123,5.09634405 15.1762161,5.39498016 C15.2387433,5.61436486 15.4297595,5.95807132 15.6511226,6.20637134 C15.9079984,6.49450553 16.1950487,6.66038487 16.5268487,6.70608048 L16.6128306,6.71382377 L16.6005659,6.62644373 C16.4908497,5.96965484 16.2722276,5.41468936 15.9596536,5.03053603 L15.852003,4.90890594 L15.7723017,4.83077668 C15.4509957,4.54417577 15.0312432,4.39201652 14.5848978,4.4011784 L13.6890515,4.46545175 L12.7798197,4.54119491 L12.4818479,4.56287051 L12.1986362,4.58023126 L11.9295127,4.59293299 L11.6762579,4.60058268 C9.98007169,4.63537429 9.18201263,4.28147767 8.54866192,3.13033425 L8.48364275,3.00788387 Z"
            id="Kids" fill="#006FB9" fill-rule="nonzero" />
    </g>
</svg>