<svg width="24px" height="24px" viewBox="0 0 24 24" version="1.1" xmlns="http://www.w3.org/2000/svg"
    xmlns:xlink="http://www.w3.org/1999/xlink">
    <g id="Icon/Content/Categories/Perfums" stroke="none" stroke-width="1" fill="none"
        fill-rule="evenodd">
        <rect id="Path" fill-rule="nonzero" x="0" y="0" width="24" height="24" />
        <path class="stylesvg"
            d="M11.565413,2 C11.8434568,2 12.0688558,2.22385763 12.0688558,2.5 L12.0690027,3.12167757 C13.6036491,3.3622101 14.9739903,3.95926022 16.1640198,4.91147997 C17.7281111,3.96349047 19.9059699,4.51627046 21.1451842,6.22190263 C22.4436835,8.00913362 22.2198638,10.3853741 20.6452688,11.5293843 C19.0706738,12.6733946 16.7415707,12.1519611 15.4430714,10.3647301 C14.5522809,9.13866224 14.3779198,7.63539649 14.8646049,6.44292099 C14.0457475,5.79353269 13.1166079,5.36404183 12.068547,5.1529981 L12.068,6.001 L12.6446428,6 C12.8828308,6 13.0777119,6.19354839 13.0777119,6.43010753 L13.0776248,9.84872305 C15.4701009,11.0794509 17.1032837,13.5216244 17.1032837,16.3273138 C17.1032837,18.4672686 16.1401353,20.496614 14.4627681,21.8916479 C14.3790161,21.9616253 14.2719996,22 14.1603302,22 L4.94527991,22 C4.83361053,22 4.72659404,21.9616253 4.642842,21.8916479 C2.96314841,20.496614 2,18.4672686 2,16.3273138 C2,13.5212321 3.63363957,11.0787679 6.0266625,9.84820688 L6.02754232,6.44529583 C6.02754232,6.20873669 6.2224234,6.0151883 6.46061139,6.0151883 L7.034,6.014 L7.0344279,2.5 C7.0344279,2.22385763 7.25982692,2 7.53787069,2 L11.565413,2 Z M9.5526146,11 C6.50012238,11 4.01377116,13.3176044 4.01377116,16.1651543 C4.01377116,17.6297641 4.67913275,19.0199637 5.84448829,20 L13.2587954,20 C14.424151,19.0199637 15.0895125,17.6297641 15.0895125,16.1651543 C15.0895125,13.3157895 12.6051068,11 9.5526146,11 Z M17.1185573,6.67528237 C16.4957117,7.12780619 16.3906744,8.24296165 17.0722465,9.1810651 C17.7538185,10.1191686 18.8468527,10.3638742 19.4696983,9.91135035 C20.0925439,9.45882653 20.1975812,8.34367107 19.5160091,7.40556762 C18.834437,6.46746416 17.7414029,6.22275855 17.1185573,6.67528237 Z M11.063,8 L8.04,8 L8.040317,9.14737417 C8.52875664,9.05074434 9.03420079,9 9.55164185,9 C10.0694373,9 10.5752195,9.05081388 11.0639703,9.14757279 L11.063,8 Z M10.054,4 L9.04819906,4 L9.04819906,6 L10.0550846,6 L10.055,4.02 L10.054,4 Z"
            id="Perfumes" fill="#006FB9" fill-rule="nonzero" />
    </g>
</svg>