<svg width="24" height="24" viewBox="0 0 24 24" fill="none" xmlns="http://www.w3.org/2000/svg">
<path fill-rule="evenodd" clip-rule="evenodd" d="M19 9C19 10.2016 18.6972 11.3325 18.1638 12.3206H18.1655L18.1363 12.3711C18.0891 12.4568 18.0402 12.5414 17.9896 12.6248L12.9194 21.3941C12.7664 21.7504 12.4124 22 12 22C11.5844 22 11.228 21.7465 11.0771 21.3856L5.99111 12.5928C5.95416 12.5311 5.91813 12.4688 5.88304 12.406L5.83368 12.3206H5.8362C5.30278 11.3325 5 10.2016 5 9C5 5.13401 8.13401 2 12 2C15.866 2 19 5.13401 19 9Z" fill="#DE0000"/>
<path d="M12 4C9.23858 4 7 6.23858 7 9C7 11.7614 9.23858 14 12 14C14.7614 14 17 11.7614 17 9C17 6.23858 14.7614 4 12 4Z" fill="white"/>
<path fill-rule="evenodd" clip-rule="evenodd" d="M12 6C12.5523 6 13 6.29305 13 6.65455V8.72727C13 9.08877 12.5523 9.38182 12 9.38182C11.4477 9.38182 11 9.08877 11 8.72727V6.65455C11 6.29305 11.4477 6 12 6ZM12 10.0364C12.5523 10.0364 13 10.3294 13 10.6909V11.3455C13 11.707 12.5523 12 12 12C11.4477 12 11 11.707 11 11.3455V10.6909C11 10.3294 11.4477 10.0364 12 10.0364Z" fill="#DE0000"/>
</svg>
