<svg width="24px" height="24px" viewBox="0 0 24 24" version="1.1" xmlns="http://www.w3.org/2000/svg"
    xmlns:xlink="http://www.w3.org/1999/xlink">
    <g id="Icon/Content/Categories/Videogames" stroke="none" stroke-width="1" fill="none"
        fill-rule="evenodd">
        <rect id="Path" fill-rule="nonzero" x="0" y="0" width="24" height="24" />
        <path class="stylesvg"
            d="M17.9711974,5.2789539 C19.4268708,5.70655017 23.214775,12.8378931 21.6120093,18.7447249 C21.434465,19.3990463 20.6019863,19.7738608 19.9817574,19.9372351 C19.350339,20.1060852 18.7395115,19.9256806 18.1640976,19.4991606 C17.8038179,19.2321069 16.9868144,18.2340008 15.7130868,16.5048423 C15.5891346,16.3314732 15.4945622,16.2026024 15.4299253,16.1174099 L15.3870692,16.0616924 L15.3293838,15.9935537 L15.3063416,15.9810447 C15.2153435,15.939839 12.8813248,15.8970649 11.0889697,15.8909115 L10.3620992,15.8906277 C9.68462904,15.8928087 9.17971564,15.902718 9.06656155,15.9233616 C8.88096114,15.9572223 8.79424366,15.984777 8.78925506,15.9796162 L8.791,15.976 L8.77658503,15.989758 C8.73691598,16.0302656 8.65751742,16.1306626 8.53670064,16.2946035 L8.45922687,16.4006225 C7.08840649,18.254721 6.20884289,19.3136605 5.82053606,19.577441 C5.42499723,19.8461342 5.01321634,19.997552 4.57884819,19.997552 C4.42364024,19.997552 4.26929145,19.9776175 4.11815797,19.9377321 C3.49470037,19.7735009 2.989121,19.3560346 2.63380131,18.7447249 C1.84319296,17.3853451 1.80683047,14.9760008 2.44323483,12.4335955 L2.53005271,12.1012981 L3.27602044,9.37239177 C3.98571307,6.97382449 4.66682753,5.78460176 5.96399712,5.33066289 L6.12265579,5.27968925 L6.42145374,5.19536896 C7.59472599,4.8862374 8.69619379,4.92935557 9.8382123,5.60193336 C10.5173594,6.00156184 13.2503885,6.02169273 14.1344237,5.66204133 L14.2580735,5.60209814 L14.4817155,5.47717545 C15.6639541,4.85322763 16.6845018,4.90046388 17.9711974,5.2789539 Z M6.96992564,6.90500935 L6.92492655,6.91977227 L6.56770695,7.07911947 C6.17713552,7.21953272 5.59472711,8.0284118 5.02457072,9.91750502 L4.94691723,10.1818429 L4.88820649,10.3888766 L4.21742865,12.8808897 C3.68722629,14.9933093 3.71052667,16.939048 4.20307556,17.7859415 C4.32247625,17.9913643 4.71692537,18.0805472 4.81138666,18.0163788 C5.1591439,17.780144 5.5278513,17.3504728 6.15938227,16.4652247 C6.94754739,15.3696525 7.41622218,14.7440718 7.56540664,14.5884829 L7.5896347,14.5648177 L7.69591257,14.4771414 C8.61328293,13.8160192 14.5213988,13.5751794 16.2162949,14.3705116 L16.3546764,14.4433926 L16.4543853,14.5198077 C16.5842383,14.6269718 17.1179113,15.3304181 18.0554044,16.6301469 C18.5855867,17.3641651 18.9154831,17.7451083 19.2345523,17.9816153 C19.4065208,18.1090852 19.7742104,17.9917243 19.8936554,17.7862252 C20.3851407,16.9408317 20.4092487,15.0007737 19.8821015,12.8928531 L19.806793,12.604456 L19.2684506,10.604918 L19.0041807,9.69038682 C18.4755189,7.96776706 18.0306232,7.2444947 17.4676337,7.07911947 C16.5317565,6.80382506 15.9125811,6.78746058 15.1681299,7.22590908 C13.8903536,7.97840265 10.2069114,7.97819867 8.92844616,7.22591514 C8.30674516,6.85977201 7.24867663,6.83688806 6.96992564,6.90500935 Z M8.39456808,8.76222244 C8.89904185,8.76222244 9.30799865,9.17117923 9.30799865,9.675653 L9.30770695,9.69922244 L9.39427073,9.70487955 C9.85995756,9.75896835 10.2214292,10.1547398 10.2214292,10.6349375 C10.2214292,11.1442792 9.81474951,11.5586358 9.30838678,11.5710105 L9.30799865,11.5942221 C9.30799865,12.0986959 8.89904185,12.5076527 8.39456808,12.5076527 C7.89009431,12.5076527 7.48113752,12.0986959 7.48113752,11.5942221 L7.48070695,11.5702224 L7.39486543,11.5649955 C6.9291786,11.5109067 6.56770695,11.1151353 6.56770695,10.6349375 C6.56770695,10.1255959 6.97438666,9.71123932 7.48074938,9.69886459 L7.48113752,9.675653 C7.48113752,9.17117923 7.89009431,8.76222244 8.39456808,8.76222244 Z M15.7020126,8.76222244 C16.7109601,8.76222244 17.5288737,9.60066555 17.5288737,10.6349375 C17.5288737,11.6692095 16.7109601,12.5076527 15.7020126,12.5076527 C14.6930651,12.5076527 13.8751515,11.6692095 13.8751515,10.6349375 C13.8751515,9.60066555 14.6930651,8.76222244 15.7020126,8.76222244 Z"
            id="Videogames" fill="#006FB9" fill-rule="nonzero" />
    </g>
</svg>